<?xml version="1.0" standalone="no"?>
<!DOCTYPE svg PUBLIC "-//W3C//DTD SVG 20010904//EN"
 "http://www.w3.org/TR/2001/REC-SVG-20010904/DTD/svg10.dtd">
<svg version="1.0" xmlns="http://www.w3.org/2000/svg"
 width="421.000000pt" height="421.000000pt" viewBox="0 0 421.000000 421.000000"
 preserveAspectRatio="xMidYMid meet">

<g transform="translate(0.000000,421.000000) scale(0.100000,-0.100000)"
fill="#000000" stroke="none">
<path d="M1605 3789 c-228 -29 -411 -121 -463 -233 -19 -40 -25 -44 -65 -50
-58 -9 -151 -64 -205 -123 -50 -54 -114 -182 -136 -273 -44 -183 -44 -343 -2
-585 28 -161 38 -194 77 -253 28 -42 39 -102 19 -102 -5 0 -10 7 -10 15 0 20
-92 115 -112 115 -9 0 -18 -8 -21 -19 -3 -13 5 -23 27 -36 99 -57 126 -129
126 -336 0 -76 -3 -139 -8 -139 -4 0 -19 8 -32 17 l-25 17 19 -22 c10 -12 26
-24 36 -27 14 -4 19 -22 24 -78 33 -342 183 -634 394 -768 71 -45 191 -87 299
-105 150 -25 393 -10 523 31 13 4 25 -7 48 -47 82 -147 272 -241 482 -241 122
1 186 27 270 112 45 45 78 90 103 142 43 88 49 116 9 44 -107 -193 -219 -269
-385 -259 -162 10 -204 21 -285 75 -88 59 -184 174 -200 239 -19 74 -33 195
-31 257 2 60 14 87 59 138 37 41 103 199 136 324 32 119 34 115 -63 151 -65
24 -83 24 -243 1 -69 -10 -128 -16 -133 -14 -4 3 2 17 13 33 24 34 36 85 21
94 -5 4 -17 -7 -26 -24 -20 -39 -63 -60 -123 -60 -73 0 -110 16 -132 59 l-19
36 -1 -37 c0 -40 40 -98 68 -98 8 0 13 -3 9 -6 -3 -3 -71 4 -152 16 -160 23
-178 22 -275 -20 -36 -15 -79 -31 -97 -35 -73 -15 -166 39 -171 100 -1 15 -7
34 -13 41 -6 8 -9 20 -6 28 3 8 2 16 -3 18 -10 3 -15 621 -6 637 8 13 87 53
93 47 3 -3 20 6 38 19 39 30 45 31 45 5 0 -23 2 -24 135 -21 111 3 135 15 135
72 0 26 3 29 33 29 43 0 53 -9 61 -52 7 -40 25 -52 60 -38 31 11 33 19 42 154
4 64 11 119 16 122 5 3 8 2 7 -3 -1 -4 -1 -41 0 -80 1 -58 5 -77 20 -92 11
-11 21 -35 23 -53 3 -32 5 -33 58 -40 30 -3 115 -14 189 -24 141 -18 286 -15
349 7 28 9 40 8 71 -6 25 -11 70 -17 136 -19 99 -3 99 -3 127 -36 17 -22 26
-41 23 -54 -3 -12 -7 -100 -9 -196 -3 -166 -8 -209 -41 -410 -8 -47 -16 -110
-20 -140 -3 -30 -8 -77 -11 -103 -5 -46 6 -77 26 -77 15 0 154 205 153 225 -2
68 18 235 37 299 26 87 60 133 123 165 34 18 43 27 40 42 -14 51 -108 -9 -154
-98 l-24 -47 -3 38 c-2 24 2 42 11 49 8 7 35 50 60 97 58 109 70 184 70 460 1
191 -1 212 -26 304 -50 186 -135 327 -279 461 -114 107 -320 207 -496 241 -82
16 -323 17 -437 3z m-200 -761 c3 -7 8 -70 13 -140 6 -115 6 -128 -9 -128 -28
0 -38 24 -34 81 2 29 5 87 6 127 2 66 12 91 24 60z m1162 -1080 c-3 -8 -6 -5
-6 6 -1 11 2 17 5 13 3 -3 4 -12 1 -19z m-1111 -258 c142 -33 322 -37 474 -11
192 34 205 35 140 11 -178 -66 -535 -64 -690 3 -49 21 -29 20 76 -3z m-107
-40 c49 -75 75 -90 141 -80 30 4 45 8 33 9 -13 0 -23 6 -23 11 0 9 14 14 33
11 4 -1 90 -4 190 -8 100 -3 184 -10 185 -14 2 -5 17 -9 32 -9 16 0 40 -5 53
-11 21 -9 31 -7 65 16 23 15 56 49 73 77 l32 49 18 -28 c38 -57 16 -147 -55
-221 -17 -18 -63 -49 -103 -69 -60 -30 -78 -34 -110 -28 -71 13 -304 17 -318
5 -22 -18 -95 -8 -145 19 -113 61 -172 135 -172 215 0 36 24 106 36 106 1 0
17 -22 35 -50z"/>
<path d="M1838 1563 c7 -3 16 -2 19 1 4 3 -2 6 -13 5 -11 0 -14 -3 -6 -6z"/>
<path d="M1625 1489 c17 -4 64 -7 105 -7 41 0 89 3 105 7 17 4 -31 7 -105 7
-74 0 -121 -3 -105 -7z"/>
<path d="M1159 2412 c-68 -35 -108 -91 -108 -147 l0 -40 20 45 c52 116 164
170 284 136 66 -20 138 -80 157 -132 6 -19 16 -34 20 -34 5 0 1 17 -7 38 -60
143 -229 205 -366 134z"/>
<path d="M2075 2421 c-81 -37 -146 -119 -144 -182 0 -23 1 -22 12 6 35 89 78
131 162 160 118 40 258 -28 301 -146 l12 -34 1 41 c1 33 -6 48 -36 84 -72 84
-210 116 -308 71z"/>
<path d="M1229 2377 c-19 -12 -42 -38 -52 -57 -20 -40 -19 -111 2 -118 10 -3
11 2 5 19 -11 36 -7 58 18 95 66 96 214 61 237 -57 9 -43 9 -43 10 -9 2 79
-66 150 -144 150 -27 0 -54 -8 -76 -23z"/>
<path d="M2092 2380 c-52 -32 -74 -76 -69 -138 2 -34 10 -59 22 -70 17 -16 17
-16 10 3 -31 76 -5 163 57 190 38 15 94 11 115 -10 8 -8 19 -15 23 -15 16 0
44 -51 52 -94 7 -40 7 -39 4 10 -6 115 -121 181 -214 124z"/>
<path d="M1271 2352 c-9 -7 -10 -12 -2 -16 17 -11 13 -46 -5 -53 -9 -3 -25 -1
-35 5 -16 10 -20 8 -25 -12 -3 -14 0 -37 8 -52 10 -22 24 -30 68 -40 80 -19
88 -17 111 19 25 40 19 91 -14 124 -25 26 -84 39 -106 25z"/>
<path d="M2125 2336 c22 -30 1 -60 -36 -52 -28 5 -29 4 -29 -32 0 -20 8 -47
18 -59 17 -23 18 -23 91 -9 78 15 91 24 91 69 0 63 -52 110 -117 105 -29 -2
-30 -4 -18 -22z"/>
<path d="M2966 1840 c-25 -39 -46 -74 -46 -78 0 -13 -63 -95 -87 -115 -13 -10
-23 -25 -23 -33 0 -8 -25 -56 -55 -107 -30 -50 -55 -101 -55 -113 0 -11 -6
-42 -14 -67 -10 -35 -11 -47 -2 -47 6 0 13 14 14 30 3 41 38 131 67 173 13 20
22 37 20 39 -2 2 24 44 57 93 81 120 181 286 175 292 -3 2 -26 -28 -51 -67z"/>
<path d="M2973 1345 c-11 -30 -17 -52 -13 -50 9 6 42 97 36 102 -1 2 -12 -21
-23 -52z"/>
<path d="M2888 1216 c-27 -24 -48 -50 -48 -58 0 -38 -102 -94 -154 -84 -17 3
-42 8 -55 11 -12 2 -39 14 -59 26 -48 28 -68 31 -117 18 -51 -13 -146 -75
-141 -91 3 -7 7 -26 11 -41 5 -25 8 -27 21 -16 9 7 24 29 34 49 19 38 46 53
108 64 24 4 46 -1 83 -20 53 -28 121 -41 162 -30 14 3 45 22 68 42 24 19 52
42 62 50 16 13 19 11 36 -17 23 -38 93 -71 141 -67 24 2 46 13 68 35 37 37 42
51 10 29 -12 -9 -37 -16 -55 -16 -43 0 -113 29 -113 46 0 8 -4 14 -9 14 -18 0
-22 52 -6 76 24 36 5 29 -47 -20z"/>
<path d="M3039 984 c-5 -15 -8 -29 -5 -31 2 -2 8 10 14 26 13 38 5 41 -9 5z"/>
</g>
</svg>
